<svg width="75" height="69" viewBox="0 0 75 69" fill="none" xmlns="http://www.w3.org/2000/svg">
<path d="M67.8387 29.5L56.9995 10.726C55.2131 7.63194 51.9119 5.72595 48.3392 5.72595L26.6608 5.72595C23.0881 5.72595 19.7869 7.63194 18.0005 10.726L7.16134 29.5C5.37502 32.594 5.37501 36.406 7.16134 39.5L18.0005 58.274C19.7869 61.3681 23.0881 63.274 26.6608 63.274L48.3392 63.274C51.9119 63.274 55.2131 61.3681 56.9995 58.274L67.8387 39.5C69.625 36.406 69.625 32.594 67.8387 29.5Z" fill="#2F80ED" stroke="#2F80ED" stroke-width="10"/>
<path d="M22.283 33.8423C22.283 35.0021 23.2369 35.9373 24.3779 35.9373H35.8441V47.4035C35.8441 48.5445 36.7981 49.4985 37.9391 49.4985C39.0801 49.4985 40.0341 48.5445 40.0341 47.4035V35.9373H51.5003C52.6413 35.9373 53.5952 35.0021 53.5952 33.8423C53.5952 32.7013 52.6413 31.7474 51.5003 31.7474H40.0341V20.2812C40.0341 19.1402 39.0801 18.1862 37.9391 18.1862C36.7981 18.1862 35.8441 19.1402 35.8441 20.2812V31.7474H24.3779C23.2369 31.7474 22.283 32.7013 22.283 33.8423Z" fill="white"/>
</svg>
