<svg width="32" height="32" viewBox="0 0 32 32" fill="none" xmlns="http://www.w3.org/2000/svg">
<path d="M8.89703 26.6346C10.0797 26.6346 12.9007 25.3501 14.665 24.0555C14.8492 23.9139 15.0043 23.8633 15.1594 23.8633C15.2854 23.8734 15.4018 23.8835 15.5084 23.8835C22.4978 23.8734 27.5 19.8985 27.5 14.4367C27.5 9.20757 22.4881 5 16.2452 5C10.0022 5 5 9.20757 5 14.4367C5 17.6935 6.88065 20.6065 10.0603 22.3967C10.2348 22.508 10.2833 22.6597 10.196 22.8417C9.63378 23.8228 8.69345 24.9152 8.30569 25.431C7.86945 26.0075 8.1215 26.6346 8.89703 26.6346Z" fill="#2F80ED"/>
</svg>
