<svg width="32" height="32" viewBox="0 0 32 32" fill="none" xmlns="http://www.w3.org/2000/svg">
<path d="M15.7662 26.5429C21.6699 26.5429 26.5429 21.6676 26.5429 15.7714C26.5429 9.87527 21.6595 5 15.7558 5C9.8625 5 5 9.87527 5 15.7714C5 21.6676 9.87291 26.5429 15.7662 26.5429ZM15.7558 17.4694C13.715 17.459 12.1324 15.7506 12.1324 13.4901C12.1115 11.3649 13.7254 9.594 15.7558 9.594C17.7862 9.594 19.3793 11.3649 19.3793 13.4901C19.3793 15.7506 17.7966 17.4903 15.7558 17.4694ZM15.7558 24.7615C13.4235 24.7615 10.9454 23.7927 9.37313 22.1051C10.5705 20.3133 12.9445 19.2716 15.7558 19.2716C18.5359 19.2716 20.9307 20.2925 22.1385 22.1051C20.5662 23.7927 18.0881 24.7615 15.7558 24.7615Z" fill="#2F80ED"/>
</svg>
