<svg width="32" height="32" viewBox="0 0 32 32" fill="none" xmlns="http://www.w3.org/2000/svg">
<path d="M7 23.667C7 25.8619 8.10029 27 10.2216 27H20.7784C22.8997 27 24 25.8619 24 23.667V8.33303C24 6.14827 22.8997 5 20.7784 5H10.2216C8.10029 5 7 6.14827 7 8.33303V23.667ZM11.084 10.721C10.5586 10.721 10.1224 10.2739 10.1224 9.73534C10.1224 9.20693 10.5586 8.74965 11.084 8.74965C11.6093 8.74965 12.0455 9.19677 12.0455 9.73534C12.0455 10.2841 11.6093 10.721 11.084 10.721ZM13.9983 10.4365C13.6216 10.4365 13.3143 10.1215 13.3143 9.73534C13.3143 9.35935 13.6216 9.04434 13.9983 9.04434H20.2035C20.5703 9.04434 20.8776 9.35935 20.8776 9.73534C20.8776 10.1215 20.5703 10.4365 20.2035 10.4365H13.9983ZM11.084 13.8711C10.5487 13.8711 10.1224 13.424 10.1224 12.8855C10.1224 12.3469 10.5487 11.9099 11.084 11.9099C11.6093 11.9099 12.0455 12.3367 12.0455 12.8855C12.0455 13.424 11.6093 13.8711 11.084 13.8711ZM13.9983 13.5764C13.6117 13.5764 13.3143 13.2716 13.3143 12.8855C13.3143 12.4993 13.6117 12.1945 13.9983 12.1945H20.2035C20.5802 12.1945 20.8776 12.4993 20.8776 12.8855C20.8776 13.2716 20.5802 13.5764 20.2035 13.5764H13.9983ZM11.084 17.1737C10.5586 17.1737 10.1224 16.7164 10.1224 16.188C10.1224 15.6494 10.5586 15.2023 11.084 15.2023C11.6093 15.2023 12.0455 15.6393 12.0455 16.188C12.0455 16.7266 11.6093 17.1737 11.084 17.1737ZM13.9983 16.8688C13.6216 16.8688 13.3143 16.564 13.3143 16.188C13.3143 15.8018 13.6117 15.497 13.9983 15.497H20.2035C20.5802 15.497 20.8776 15.8018 20.8776 16.188C20.8776 16.564 20.5703 16.8688 20.2035 16.8688H13.9983Z" fill="#2F80ED"/>
</svg>
