<svg width="32" height="32" viewBox="0 0 32 32" fill="none" xmlns="http://www.w3.org/2000/svg">
<g clip-path="url(#clip0_15_6)">
<path d="M22.1719 15.2774C24.7266 15.2774 26.8946 13.0039 26.8946 10.0625C26.8946 7.19141 24.7149 5 22.1719 5C19.629 5 17.4374 7.22656 17.4492 10.0859C17.4492 13.0039 19.6172 15.2774 22.1719 15.2774ZM8.625 15.5469C10.8516 15.5469 12.7382 13.5547 12.7382 11C12.7382 8.49219 10.8398 6.59375 8.625 6.59375C6.41016 6.59375 4.5 8.52734 4.51172 11.0234C4.51172 13.5547 6.39844 15.5469 8.625 15.5469ZM2.16797 26.1758H10.9453C9.70315 24.3829 11.0742 20.8438 13.7109 18.7812C12.4218 17.9376 10.7343 17.3281 8.625 17.3281C3.38672 17.3281 0 21.1835 0 24.371C0 25.5195 0.58594 26.1758 2.16797 26.1758ZM14.8594 26.1758H29.4727C31.3946 26.1758 32.0625 25.5899 32.0625 24.5235C32.0625 21.5 28.2422 17.3516 22.1602 17.3516C16.0899 17.3516 12.2696 21.5 12.2696 24.5235C12.2696 25.5899 12.9375 26.1758 14.8594 26.1758Z" fill="#2F80ED"/>
</g>
<defs>
<clipPath id="clip0_15_6">
<rect width="32" height="32" fill="white"/>
</clipPath>
</defs>
</svg>
