<svg width="128" height="128" viewBox="0 0 128 128" fill="#007AFF" xmlns="http://www.w3.org/2000/svg">
  <path fill-rule="evenodd" d="M125.074 53.148L103.958 16.818C100.059 10.1098 92.8706 6 85.1154 6H42.8846C35.1294 6 27.9406 10.1098 24.0418 16.818L2.9264 53.148C-0.975466 59.8614 -0.975468 68.1386 2.9264 74.852L24.0418 111.182C27.9406 117.89 35.1294 122 42.8846 122H85.1154C92.8706 122 100.059 117.89 103.958 111.182L125.074 74.852C128.975 68.1386 128.975 59.8614 125.074 53.148ZM90.9132 27.3662C89.0358 24.2148 86.6294 23.2278 83.1902 23.2278H44.8098C41.3896 23.2562 38.502 24.6942 37.0868 27.3662L19.8215 59.8616C19.0227 61.236 19.0227 66.764 19.8215 68.1384L37.0868 100.634C38.502 102.826 41.3896 104.772 44.8098 104.772H77.2612C77.2612 104.772 91.099 110.515 92.8288 111.089C94.5586 111.663 95.9158 110.309 95.7118 108.792C95.5076 107.275 93.5074 94.7756 93.5074 94.7756L108.178 68.1384C108.977 66.764 108.977 61.236 108.178 59.8616L90.9132 27.3662Z" fill="current"/>
  <path d="M92.0522 63.5425V67.8091C92.0522 70.2983 90.5392 70.9067 88.1094 70.9067H63.5272C61.1126 70.9067 59.5996 70.2983 59.5996 67.8091V63.5425C59.5996 61.0687 61.1126 60.4111 63.5272 60.4111H88.1094C90.5392 60.4111 92.0522 61.0687 92.0522 63.5425Z" fill="current"/>
  <path d="M70.1341 78.992V82.2032C69.5395 85.0672 68.5877 85.0672 66.1577 85.0672H53.0575C50.6429 85.0672 49.1631 84.6924 49.1631 82.2032V78.992C49.1631 76.5182 50.6429 75.627 53.0575 75.627H66.1577C68.5877 75.627 70.1341 76.5182 70.1341 78.992Z" fill="current"/>
  <path d="M81.3558 52.9544V47.306C81.3558 44.8324 79.8428 44.8692 77.4128 44.8692H47.5472C45.1326 44.8692 44.636 44.8692 43.6196 47.306V52.9544C44.636 55.173 45.1326 55.173 47.5472 55.173H77.4128C79.8428 55.173 81.3558 55.4436 81.3558 52.9544Z" fill="current"/>
</svg>
